<?xml version="1.0" encoding="UTF-8"?>
<svg version="1.1" xmlns="http://www.w3.org/2000/svg" width="213" height="57">
<path d="M0 0 C3.3632239 1.70969639 5.82330429 3.99311818 8.47192383 6.62402344 C9.26036934 7.39749115 9.26036934 7.39749115 10.06474304 8.18658447 C11.16866644 9.27537494 12.26860484 10.36821897 13.36474609 11.46484375 C15.04288781 13.13640643 16.74356294 14.78249816 18.4465332 16.42871094 C19.51896193 17.49233983 20.5899756 18.55739779 21.65942383 19.62402344 C22.16870926 20.11175232 22.67799469 20.5994812 23.20271301 21.10198975 C25.68357465 23.63216247 26.69374262 25.07471618 27.14453125 28.6328125 C26.69332679 31.66014509 26.14347165 32.58227663 23.73364258 34.38964844 C24.08426758 34.94652344 24.43489258 35.50339844 24.79614258 36.07714844 C26.04257461 39.15168078 25.80960049 40.23261965 24.73364258 43.38964844 C22.85903906 45.89821558 20.70718585 48.06543278 18.48364258 50.26464844 C17.91000977 50.87050781 17.33637695 51.47636719 16.74536133 52.10058594 C15.13869635 53.71091075 13.63254253 55.13646721 11.73364258 56.38964844 C9.06176758 56.27246094 9.06176758 56.27246094 6.73364258 55.38964844 C5.41364258 55.38964844 4.09364258 55.38964844 2.73364258 55.38964844 C2.40364258 55.71964844 2.07364258 56.04964844 1.73364258 56.38964844 C-0.95263672 56.78515625 -0.95263672 56.78515625 -4.26635742 56.38964844 C-6.54607175 54.67116688 -8.33365711 53.09583051 -10.28588867 51.06152344 C-10.82992844 50.51610901 -11.3739682 49.97069458 -11.93449402 49.40875244 C-13.07856492 48.25563974 -14.21535682 47.09526506 -15.34521484 45.92822266 C-17.0747778 44.14385732 -18.82719238 42.38471657 -20.5847168 40.62792969 C-21.69486682 39.50303319 -22.80363936 38.37677526 -23.91088867 37.24902344 C-24.43374954 36.7228241 -24.95661041 36.19662476 -25.49531555 35.65447998 C-30.28617568 30.67301644 -30.28617568 30.67301644 -30.26635742 27.38964844 C-29.17773438 25.59838867 -29.17773438 25.59838867 -27.44213867 23.76074219 C-26.79325684 23.06577637 -26.144375 22.37081055 -25.47583008 21.65478516 C-24.7467041 20.90729004 -24.01757812 20.15979492 -23.26635742 19.38964844 C-22.49727051 18.59445801 -21.72818359 17.79926758 -20.93579102 16.97998047 C-18.46106649 14.45075751 -15.96174337 11.94846842 -13.45385742 9.45214844 C-12.59598633 8.59041016 -11.73811523 7.72867187 -10.85424805 6.84082031 C-10.03504883 6.02291016 -9.21584961 5.205 -8.37182617 4.36230469 C-7.63085693 3.62246338 -6.8898877 2.88262207 -6.12646484 2.12036133 C-2.98390408 -0.80359369 -2.98390408 -0.80359369 0 0 Z " fill="#383F5D" transform="translate(30.266357421875,0.6103515625)"/>
<path d="M0 0 C3.17300576 3.58242586 3.06104749 6.94895257 3.03515625 11.609375 C3.03193359 12.63417969 3.02871094 13.65898437 3.02539062 14.71484375 C3.01701172 15.77832031 3.00863281 16.84179688 3 17.9375 C2.99548828 19.01644531 2.99097656 20.09539063 2.98632812 21.20703125 C2.97455742 23.86721125 2.95662239 26.52736269 2.9375 29.1875 C-0.6925 29.1875 -4.3225 29.1875 -8.0625 29.1875 C-8.5575 17.3075 -8.5575 17.3075 -9.0625 5.1875 C-11.3725 5.5175 -13.6825 5.8475 -16.0625 6.1875 C-16.3925 13.7775 -16.7225 21.3675 -17.0625 29.1875 C-20.6925 29.1875 -24.3225 29.1875 -28.0625 29.1875 C-28.0625 19.9475 -28.0625 10.7075 -28.0625 1.1875 C-18.96394614 -2.2244577 -8.97292907 -5.31050904 0 0 Z " fill="#383F5D" transform="translate(134.0625,6.8125)"/>
<path d="M0 0 C4.14594916 3.08608246 6.05840225 7.17571667 7.12109375 12.09765625 C7.12109375 13.74765625 7.12109375 15.39765625 7.12109375 17.09765625 C-0.13890625 17.09765625 -7.39890625 17.09765625 -14.87890625 17.09765625 C-13.37890625 21.09765625 -13.37890625 21.09765625 -10.87890625 22.09765625 C-5.16616334 22.59795756 -0.28244508 21.93715883 5.12109375 20.09765625 C4.79109375 23.06765625 4.46109375 26.03765625 4.12109375 29.09765625 C-2.14220896 31.18542382 -11.01602969 31.15226373 -17.3828125 29.4140625 C-20.17230375 27.96208109 -21.90623604 26.062392 -23.81640625 23.59765625 C-25.77805582 17.1357518 -26.11146292 10.69972034 -23.19140625 4.53515625 C-17.03454837 -1.95450476 -8.29769425 -3.98496335 0 0 Z M-9.87890625 5.09765625 C-11.56653476 6.74309405 -13.23294115 8.41054202 -14.87890625 10.09765625 C-14.87890625 10.42765625 -14.87890625 10.75765625 -14.87890625 11.09765625 C-11.24890625 11.09765625 -7.61890625 11.09765625 -3.87890625 11.09765625 C-4.20890625 9.77765625 -4.53890625 8.45765625 -4.87890625 7.09765625 C-7.36925011 5.80105191 -7.36925011 5.80105191 -9.87890625 5.09765625 Z " fill="#383F5D" transform="translate(165.87890625,5.90234375)"/>
<path d="M0 0 C3.63 0 7.26 0 11 0 C11.33 7.59 11.66 15.18 12 23 C14.31 23 16.62 23 19 23 C19.33 15.41 19.66 7.82 20 0 C23.3 0 26.6 0 30 0 C30 9.57 30 19.14 30 29 C9.71084337 33.34767642 9.71084337 33.34767642 2.9375 29.0625 C-0.17494896 25.74924788 -0.12016081 23.79184041 -0.09765625 19.3359375 C-0.09443359 18.21445312 -0.09121094 17.09296875 -0.08789062 15.9375 C-0.07951172 14.761875 -0.07113281 13.58625 -0.0625 12.375 C-0.05798828 11.19164062 -0.05347656 10.00828125 -0.04882812 8.7890625 C-0.03701478 5.85935361 -0.0190789 2.92967059 0 0 Z " fill="#383F5D" transform="translate(70,5)"/>
<path d="M0 0 C0 2.31 0 4.62 0 7 C-0.65226562 6.84402344 -1.30453125 6.68804687 -1.9765625 6.52734375 C-6.97062904 5.41509589 -10.93834187 4.6679847 -16 6 C-13.61489653 8.38510347 -11.82375404 8.8048496 -8.625 9.8125 C-5.22539643 11.03046821 -3.06869205 11.94379741 -0.25 14.25 C1.24214469 17.53271833 1.39255212 19.61553445 0.7421875 23.1328125 C-0.57515288 26.44696356 -2.89778231 27.50854919 -6 29 C-10.15096869 30.14187547 -13.85122202 29.96073203 -18.125 29.625 C-19.34445313 29.53476562 -20.56390625 29.44453125 -21.8203125 29.3515625 C-25 29 -25 29 -28 28 C-28 25.03 -28 22.06 -28 19 C-27.27554688 19.22816406 -26.55109375 19.45632812 -25.8046875 19.69140625 C-18.49251263 21.93161363 -18.49251263 21.93161363 -11 21 C-11.84248053 18.75785342 -11.84248053 18.75785342 -14.36328125 18.0703125 C-16.3208301 17.44285976 -18.27915963 16.81783713 -20.23828125 16.1953125 C-23.30006815 14.87012609 -24.93481504 13.60916141 -27 11 C-27.72929129 8.2544328 -27.55423692 5.77689836 -27 3 C-24.79003372 -0.35914875 -22.10376041 -1.79682771 -18.19921875 -2.75390625 C-12.0892826 -3.43761136 -5.3834813 -3.13501059 0 0 Z " fill="#383F5D" transform="translate(203,7)"/>
<path d="M0 0 C3.60825531 1.80412766 5.24493177 3.04913632 7.9375 5.875 C10.80961274 8.82763927 13.69665371 11.52249028 17 14 C16.71061651 19.47761602 13.43856637 22.22678993 9.75 25.875 C9.17636719 26.48085938 8.60273437 27.08671875 8.01171875 27.7109375 C3.80988812 31.9223395 3.80988812 31.9223395 0.43359375 32.24609375 C-2.95734463 30.50980267 -5.22768843 28.02214 -7.6875 25.1875 C-8.41549805 24.38602539 -8.41549805 24.38602539 -9.15820312 23.56835938 C-11.64284804 20.78212998 -13.31389051 18.37221898 -15 15 C-10.05 10.05 -5.1 5.1 0 0 Z " fill="#6C77A7" transform="translate(39,25)"/>
<path d="M0 0 C1.32 0 2.64 0 4 0 C4 5.28 4 10.56 4 16 C0.98131566 17.50934217 -1.67297229 17.17510672 -5 17 C-8 15 -8 15 -8.875 11.625 C-9 8 -9 8 -7.9375 5.5625 C-5.26105048 3.40407297 -3.34099864 3.70302234 0 4 C0 2.68 0 1.36 0 0 Z M-3 7 C-4.29633621 8.06645115 -4.29633621 8.06645115 -4.0625 10.5625 C-4.041875 11.366875 -4.02125 12.17125 -4 13 C-3.01 13.33 -2.02 13.66 -1 14 C0.35618499 12.87465895 0.35618499 12.87465895 0.0625 9.9375 C0.041875 8.968125 0.02125 7.99875 0 7 C-0.99 7 -1.98 7 -3 7 Z " fill="#6D78A8" transform="translate(194,38)"/>
<path d="M0 0 C1.32 0 2.64 0 4 0 C4 5.28 4 10.56 4 16 C0.95016004 17.52491998 -1.6423369 17.23562548 -5 17 C-6.9375 16 -6.9375 16 -8 14 C-8.35528819 11.19780764 -8.22717012 8.86234355 -8 6 C-6 4 -6 4 -2.875 3.875 C-1.92625 3.91625 -0.9775 3.9575 0 4 C0 2.68 0 1.36 0 0 Z M-3 7 C-3.33 8.65 -3.66 10.3 -4 12 C-2.515 12.99 -2.515 12.99 -1 14 C0.35618499 12.87465895 0.35618499 12.87465895 0.0625 9.9375 C0.041875 8.968125 0.02125 7.99875 0 7 C-0.99 7 -1.98 7 -3 7 Z " fill="#6D78A8" transform="translate(166,38)"/>
<path d="M0 0 C1.65 0 3.3 0 5 0 C5 3.3 5 6.6 5 10 C5.66 9.67 6.32 9.34 7 9 C7.46651207 6.87423218 7.46651207 6.87423218 7.625 4.4375 C7.69976562 3.61121094 7.77453125 2.78492188 7.8515625 1.93359375 C7.90054688 1.29550781 7.94953125 0.65742187 8 0 C9.65 0 11.3 0 13 0 C13 3.96 13 7.92 13 12 C9.07703567 13.30765478 6.13997567 13.1971417 2 13 C0 11 0 11 -0.1953125 8.3984375 C-0.17210938 7.40070312 -0.14890625 6.40296875 -0.125 5.375 C-0.10695313 4.37210938 -0.08890625 3.36921875 -0.0703125 2.3359375 C-0.04710938 1.56507812 -0.02390625 0.79421875 0 0 Z " fill="#6D78A8" transform="translate(68,42)"/>
<path d="M0 0 C2 1.5 2 1.5 3 4 C2.94520548 11.05479452 2.94520548 11.05479452 1 13 C-6.08571429 13.45714286 -6.08571429 13.45714286 -9 12 C-10.70552828 8.58894344 -10.36027104 5.78284597 -10 2 C-6.29584707 -0.46943529 -4.37855495 -0.46913089 0 0 Z M-5 3 C-5.33 3.66 -5.66 4.32 -6 5 C-4.68 4.67 -3.36 4.34 -2 4 C-2.99 3.67 -3.98 3.34 -5 3 Z M-5 8 C-4.67 8.66 -4.34 9.32 -4 10 C-2.35 9.67 -0.7 9.34 1 9 C1 8.67 1 8.34 1 8 C-0.98 8 -2.96 8 -5 8 Z " fill="#6D78A8" transform="translate(210,42)"/>
<path d="M0 0 C1.734375 1.234375 1.734375 1.234375 3 3 C3.109375 5.2265625 3.109375 5.2265625 2.75 7.625 C2.64171875 8.42164063 2.5334375 9.21828125 2.421875 10.0390625 C2 12 2 12 1 13 C-2.52299415 13.26588635 -5.17067114 13.36150232 -8.4375 11.9375 C-10 10 -10 10 -10.4375 6.5 C-10 3 -10 3 -8.9375 1.0625 C-5.88023824 -0.6140629 -3.4093712 -0.36528977 0 0 Z M-5 3 C-5 3.66 -5 4.32 -5 5 C-4.01 5 -3.02 5 -2 5 C-2 4.34 -2 3.68 -2 3 C-2.99 3 -3.98 3 -5 3 Z M-5 8 C-4.67 8.66 -4.34 9.32 -4 10 C-2.35 9.67 -0.7 9.34 1 9 C1 8.67 1 8.34 1 8 C-0.98 8 -2.96 8 -5 8 Z " fill="#6D78A8" transform="translate(125,42)"/>
<path d="M0 0 C1.64574566 -0.02688151 3.29161413 -0.04634123 4.9375 -0.0625 C5.85402344 -0.07410156 6.77054688 -0.08570313 7.71484375 -0.09765625 C10 0 10 0 11 1 C11.09851171 2.83115883 11.12972629 4.66619933 11.125 6.5 C11.12757813 7.5003125 11.13015625 8.500625 11.1328125 9.53125 C11 12 11 12 10 13 C8.00390625 13.16796875 8.00390625 13.16796875 5.5625 13.1875 C4.35787109 13.20876953 4.35787109 13.20876953 3.12890625 13.23046875 C1 13 1 13 -1 11 C-0.8125 8.5 -0.8125 8.5 0 6 C0.99 5.34 1.98 4.68 3 4 C2.01 4 1.02 4 0 4 C0 2.68 0 1.36 0 0 Z M6 7 C5.01 7.495 5.01 7.495 4 8 C4 8.66 4 9.32 4 10 C4.99 10 5.98 10 7 10 C6.67 9.01 6.34 8.02 6 7 Z " fill="#6D78A8" transform="translate(173,42)"/>
<path d="M0 0 C1.20462891 -0.02126953 1.20462891 -0.02126953 2.43359375 -0.04296875 C4.5625 0.1875 4.5625 0.1875 6.5625 2.1875 C6.7578125 4.7890625 6.7578125 4.7890625 6.6875 7.8125 C6.66945313 8.81539062 6.65140625 9.81828125 6.6328125 10.8515625 C6.59800781 12.00785156 6.59800781 12.00785156 6.5625 13.1875 C4.9125 13.1875 3.2625 13.1875 1.5625 13.1875 C1.5625 9.8875 1.5625 6.5875 1.5625 3.1875 C0.5725 3.1875 -0.4175 3.1875 -1.4375 3.1875 C-1.4375 6.4875 -1.4375 9.7875 -1.4375 13.1875 C-2.7575 13.1875 -4.0775 13.1875 -5.4375 13.1875 C-5.46436553 11.20840602 -5.48383375 9.22921029 -5.5 7.25 C-5.51160156 6.14785156 -5.52320312 5.04570313 -5.53515625 3.91015625 C-5.37806595 -0.46952132 -3.95883843 0.03167071 0 0 Z " fill="#6D78A8" transform="translate(88.4375,41.8125)"/>
<path d="M0 0 C1.37478516 0.01740234 1.37478516 0.01740234 2.77734375 0.03515625 C3.69644531 0.04417969 4.61554688 0.05320313 5.5625 0.0625 C6.27277344 0.07410156 6.98304688 0.08570313 7.71484375 0.09765625 C7.71484375 1.41765625 7.71484375 2.73765625 7.71484375 4.09765625 C6.39484375 4.09765625 5.07484375 4.09765625 3.71484375 4.09765625 C5.03484375 4.75765625 6.35484375 5.41765625 7.71484375 6.09765625 C7.90234375 8.47265625 7.90234375 8.47265625 7.71484375 11.09765625 C4.04619134 13.54342452 2.04284032 13.33372879 -2.28515625 13.09765625 C-2.94515625 12.76765625 -3.60515625 12.43765625 -4.28515625 12.09765625 C-3.95515625 10.77765625 -3.62515625 9.45765625 -3.28515625 8.09765625 C-1.30515625 8.75765625 0.67484375 9.41765625 2.71484375 10.09765625 C2.71484375 9.43765625 2.71484375 8.77765625 2.71484375 8.09765625 C1.91046875 7.95328125 1.10609375 7.80890625 0.27734375 7.66015625 C-2.28515625 7.09765625 -2.28515625 7.09765625 -3.28515625 6.09765625 C-3.41015625 3.59765625 -3.41015625 3.59765625 -3.28515625 1.09765625 C-2.28515625 0.09765625 -2.28515625 0.09765625 0 0 Z " fill="#6D78A8" transform="translate(142.28515625,41.90234375)"/>
<path d="M0 0 C1.65 0 3.3 0 5 0 C5.33 0.99 5.66 1.98 6 3 C6.66 2.01 7.32 1.02 8 0 C10.625 -0.1875 10.625 -0.1875 13 0 C12.52343588 1.79236067 12.04366502 3.58386897 11.5625 5.375 C11.29566406 6.37273438 11.02882813 7.37046875 10.75390625 8.3984375 C10 11 10 11 9 13 C7.35 13 5.7 13 4 13 C3.32694982 11.39850114 2.66177773 9.79368971 2 8.1875 C1.62875 7.29417969 1.2575 6.40085937 0.875 5.48046875 C0 3 0 3 0 0 Z " fill="#6D78A8" transform="translate(102,42)"/>
<path d="M0 0 C2.05078125 0.03255208 4.1015625 0.06510417 6.15234375 0.09765625 C6.15234375 1.08765625 6.15234375 2.07765625 6.15234375 3.09765625 C4.83234375 3.09765625 3.51234375 3.09765625 2.15234375 3.09765625 C2.15234375 6.39765625 2.15234375 9.69765625 2.15234375 13.09765625 C0.50234375 13.09765625 -1.14765625 13.09765625 -2.84765625 13.09765625 C-2.87452178 11.11856227 -2.89399 9.13936654 -2.91015625 7.16015625 C-2.92175781 6.05800781 -2.93335938 4.95585938 -2.9453125 3.8203125 C-2.81361949 0.14871139 -2.81361949 0.14871139 0 0 Z " fill="#6D78A8" transform="translate(131.84765625,41.90234375)"/>
<path d="M0 0 C1.32 0 2.64 0 4 0 C4 4.29 4 8.58 4 13 C2.68 13 1.36 13 0 13 C0 8.71 0 4.42 0 0 Z " fill="#6D78A8" transform="translate(152,42)"/>
<path d="M0 0 C1.32 0 2.64 0 4 0 C4 4.29 4 8.58 4 13 C2.68 13 1.36 13 0 13 C0 8.71 0 4.42 0 0 Z " fill="#6D78A8" transform="translate(97,42)"/>
<path d="M0 0 C1.32 0 2.64 0 4 0 C4 0.99 4 1.98 4 3 C2.68 3 1.36 3 0 3 C0 2.01 0 1.02 0 0 Z " fill="#6D78A8" transform="translate(152,38)"/>
<path d="M0 0 C1.32 0 2.64 0 4 0 C4 0.99 4 1.98 4 3 C2.68 3 1.36 3 0 3 C0 2.01 0 1.02 0 0 Z " fill="#6D78A8" transform="translate(97,38)"/>
</svg>
